HIERARCHY
ROOT Hips
{
  OFFSET 90.7885 88.945 -76.2838
  CHANNELS 6 Xposition Yposition Zposition Zrotation Xrotation Yrotation
  JOINT LeftUpLeg
  {
    OFFSET 8.64259 1.95398 -2.38835
    CHANNELS 3 Zrotation Xrotation Yrotation
    JOINT LeftLeg
    {
      OFFSET 43.7702 0 0
      CHANNELS 3 Zrotation Xrotation Yrotation
      JOINT LeftFoot
      {
        OFFSET 40.6238 0 0
        CHANNELS 3 Zrotation Xrotation Yrotation
        JOINT LeftToeBase
        {
          OFFSET 12.7242 0 0
          CHANNELS 3 Zrotation Xrotation Yrotation
          End Site
          {
            OFFSET 0 0 0
          }
        }
      }
    }
  }
  JOINT RightUpLeg
  {
    OFFSET -8.2249 1.95398 -2.59336
    CHANNELS 3 Zrotation Xrotation Yrotation
    JOINT RightLeg
    {
      OFFSET 43.5653 0 0
      CHANNELS 3 Zrotation Xrotation Yrotation
      JOINT RightFoot
      {
        OFFSET 40.6238 0 0
        CHANNELS 3 Zrotation Xrotation Yrotation
        JOINT RightToeBase
        {
          OFFSET 12.7242 0 0
          CHANNELS 3 Zrotation Xrotation Yrotation
          End Site
          {
            OFFSET 0 0 0
          }
        }
      }
    }
  }
  JOINT Spine
  {
    OFFSET 0.165834 0.87714 6.61349
    CHANNELS 3 Zrotation Xrotation Yrotation
    JOINT Spine1
    {
      OFFSET 7.38963 1.71661e-005 0
      CHANNELS 3 Zrotation Xrotation Yrotation
      JOINT Spine2
      {
        OFFSET 11.9445 1.14441e-005 0
        CHANNELS 3 Zrotation Xrotation Yrotation
        JOINT Spine3
        {
          OFFSET 14.7254 4.19617e-005 0
          CHANNELS 3 Zrotation Xrotation Yrotation
          JOINT Spine4
          {
            OFFSET 10.9679 0 0
            CHANNELS 3 Zrotation Xrotation Yrotation
            JOINT RightShoulder
            {
              OFFSET 2.46616 -1.6653 3.69651
              CHANNELS 3 Zrotation Xrotation Yrotation
              JOINT RightArm
              {
                OFFSET 13.0012 0 0
                CHANNELS 3 Zrotation Xrotation Yrotation
                JOINT RightForeArm
                {
                  OFFSET 28.7848 1.52588e-005 0
                  CHANNELS 3 Zrotation Xrotation Yrotation
                  JOINT RightHand
                  {
                    OFFSET 26.5688 1.52588e-005 0
                    CHANNELS 3 Zrotation Xrotation Yrotation
                    End Site
                    {
                      OFFSET 0 0 0
                    }
                  }
                }
              }
            }
            JOINT LeftShoulder
            {
              OFFSET 2.38034 -1.29275 -3.7523
              CHANNELS 3 Zrotation Xrotation Yrotation
              JOINT LeftArm
              {
                OFFSET 16.3182 6.10352e-005 0
                CHANNELS 3 Zrotation Xrotation Yrotation
                JOINT LeftForeArm
                {
                  OFFSET 27.0901 0 0
                  CHANNELS 3 Zrotation Xrotation Yrotation
                  JOINT LeftHand
                  {
                    OFFSET 24.5451 1.52588e-005 0
                    CHANNELS 3 Zrotation Xrotation Yrotation
                    End Site
                    {
                      OFFSET 0 0 0
                    }
                  }
                }
              }
            }
            JOINT Neck
            {
              OFFSET 5.0226 -0.0266342 0
              CHANNELS 3 Zrotation Xrotation Yrotation
              JOINT Head
              {
                OFFSET 6.69363 2.86102e-005 0
                CHANNELS 3 Zrotation Xrotation Yrotation
                End Site
                {
                  OFFSET 0 0 0
                }
              }
            }
          }
        }
      }
    }
  }
}
MOTION
Frames:	16
Frame Time:	0.0416667
25.5412 99.5717 12.9972 -157.445 -81.028 -158.376 -175.61 -5.05683 92.4939 -13.4416 -4.97686 -0.969279 72.1856 5.19986 -5.58542 17.8753 -4.31026 6.9649 169.539 -3.27097 84.8882 -15.0474 -13.868 -2.19407 68.5626 -4.61957 0.992337 27.6404 -0.917109 2.36835 0.309453 7.62428 -90.0429 11.6258 0.595503 -0.147314 -0.0450215 0.588442 -0.173389 -22.5813 0.612243 0.0384807 -2.56863 0.612251 0.0384832 89.3385 -31.2872 -107.56 40.9708 -14.7111 -4.47646 3.39557 -24.4211 -16.6894 -22.475 -0.99118 -6.00504 -87.0763 -53.6121 83.6896 -23.3401 18.5663 -13.426 2.67084 -2.95645 -6.64875 3.48375 -0.172945 -5.9811 4.95715 -1.50673 -1.15621 -5.22544 -1.32616 1.91789 
25.368 99.5873 13.1231 -160.185 -81.0937 -161.428 -175.871 -5.37134 92.1643 -13.0453 -4.85712 -0.717298 72.0188 5.29258 -5.00172 17.9776 -3.09985 5.4831 169.069 -3.32729 84.4703 -15.3462 -15.6758 -1.97627 68.4114 -4.6359 -0.845129 26.9738 -1.16913 3.0558 0.314898 7.60818 -90.0992 11.6582 0.579909 -0.258096 -0.0126789 0.567989 -0.283378 -22.5488 0.630669 -0.0718664 -2.53619 0.630663 -0.071878 89.9185 -30.3104 -106.801 41.6816 -14.8361 -4.07588 3.61132 -24.7048 -16.1995 -23.0847 -1.07587 -5.62696 -87.6489 -54.714 83.0409 -22.9587 18.4075 -12.2308 2.86412 -2.05785 -8.09277 -0.433451 -0.150894 -8.19471 4.34992 -1.60139 -0.0452539 -5.16242 -1.60736 1.37552 
25.0462 99.6085 13.3374 -161.257 -81.157 -162.532 -176.099 -5.80551 92.1282 -12.3653 -4.94089 -0.31881 71.6469 5.15557 -5.34772 18.1205 -3.54603 6.01689 168.879 -3.58169 84.4738 -15.2903 -15.4805 -1.74944 68.6699 -4.71179 -0.610022 26.5239 -1.06908 2.90239 0.3367 7.60627 -90.0774 11.662 0.633496 -0.220292 -0.0088222 0.623193 -0.247968 -22.5452 0.670414 -0.0197072 -2.53253 0.670416 -0.0197108 89.9577 -30.6569 -106.593 41.4858 -13.8854 -4.12791 4.3653 -25.0425 -14.9935 -23.4402 -0.691133 -7.99304 -87.7022 -53.8648 82.8275 -22.8295 19.4091 -11.6509 2.20493 -3.24579 -7.27531 1.87121 -0.136014 -5.48078 4.54606 -1.64063 -0.784775 -5.58834 -1.52122 1.45992 
24.718 99.6027 13.4035 -161.918 -81.3047 -163.243 -176.043 -5.62639 92.2762 -12.4569 -4.46276 -0.295919 71.3156 5.03124 -5.09875 18.6065 -3.9359 6.46805 169.007 -3.67976 84.6761 -15.1236 -15.1901 -1.76654 68.7887 -4.80259 -0.638279 26.5551 -1.11976 3.01097 0.30999 7.57516 -90.1125 11.7244 0.563764 -0.283486 0.0535087 0.550747 -0.308034 -22.4826 0.622905 -0.100938 -2.46991 0.622902 -0.100945 89.873 -30.3394 -106.881 41.1927 -14.3883 -4.03026 3.87271 -26.1104 -15.2785 -23.5972 -0.839238 -7.44053 -87.7758 -54.7404 82.8642 -22.9209 18.9587 -10.9154 2.25839 -3.28719 -6.61599 0.741667 -0.132615 -5.95796 4.44775 -1.52714 -0.213485 -5.34043 -1.50136 1.21402 
24.5103 99.5873 13.3885 -165.708 -81.3132 -167.149 -175.869 -5.55452 92.4807 -12.7254 -3.92244 -0.378917 71.4734 5.073 -5.34459 19.0854 -3.70513 6.15294 168.775 -3.78897 84.5728 -15.2911 -14.7692 -1.54363 69.0001 -4.91144 -0.644033 26.3837 -1.23798 3.30201 0.261328 7.59594 -90.1089 11.6826 0.468739 -0.266093 0.0117314 0.456578 -0.286477 -22.524 0.527038 -0.112921 -2.5114 0.527042 -0.112922 89.9659 -30.3834 -106.68 41.1446 -14.3697 -4.09477 3.8626 -24.3261 -15.6103 -23.7754 -0.763258 -7.30845 -87.8319 -54.7603 82.7879 -23.5785 18.8072 -10.5474 2.50814 -2.35255 -6.9227 -0.110601 -0.109322 -5.32168 4.35045 -1.69009 -0.487793 -4.83494 -1.60763 1.2049 
24.3617 99.6101 13.5108 -166.031 -81.0897 -167.655 -175.76 -5.99442 92.4971 -12.4987 -3.80713 -0.47357 71.3161 5.04851 -5.46564 18.4414 -3.77032 6.27292 168.624 -4.02973 84.3905 -15.3827 -14.876 -1.53964 69.1504 -4.95097 -0.606468 26.5039 -1.19785 3.19467 0.267255 7.60964 -90.0949 11.6551 0.487137 -0.240008 -0.0157583 0.476101 -0.261219 -22.5516 0.536747 -0.0824979 -2.53897 0.536747 -0.0824994 89.894 -30.2293 -106.881 41.3426 -14.3167 -4.0606 3.68497 -24.2738 -15.6558 -24.103 -0.737247 -7.4342 -87.7593 -54.7374 82.8878 -24.1157 18.6393 -10.3103 2.92621 -1.08254 -7.72926 0.443716 -0.0817092 -4.17721 4.40275 -1.77927 -0.323855 -5.25461 -1.7239 1.02319 
24.2358 99.5854 13.5213 -166.302 -81.3104 -167.755 -175.715 -5.59795 92.7321 -12.8029 -3.6652 -0.390626 71.4584 5.08243 -5.57619 18.3621 -4.03566 6.60228 168.901 -3.98973 84.7394 -15.1277 -14.688 -1.59074 68.6709 -4.71388 -0.267764 27.6555 -1.1153 2.81424 0.258346 7.58383 -90.1136 11.7069 0.460584 -0.274579 0.0360186 0.448058 -0.294597 -22.4997 0.521818 -0.123461 -2.48709 0.521816 -0.123461 89.8416 -30.4209 -106.911 41.2 -14.5444 -4.1727 3.90942 -23.8616 -15.437 -25.1965 -0.605075 -7.9597 -87.6608 -54.5106 82.9917 -24.1239 18.4034 -10.6645 2.56979 -3.61196 -6.94448 -0.812472 -0.127469 -6.944 4.19655 -1.83588 -0.596639 -5.20203 -1.73422 1.09883 
24.1901 99.5801 13.4941 -167.17 -81.4233 -168.4 -175.42 -5.31877 93.1336 -13.0212 -3.18768 -0.566781 71.3939 5.07726 -5.46752 19.1424 -3.65377 6.08063 169.141 -4.01833 85.1023 -15.1143 -14.2337 -1.61302 68.807 -4.78941 -0.381699 27.0757 -1.06845 2.80804 0.242078 7.56206 -90.1429 11.7504 0.414412 -0.328542 0.0794474 0.399541 -0.34647 -22.4561 0.49398 -0.188809 -2.44346 0.493985 -0.188807 89.9503 -30.4886 -106.671 41.2805 -14.8216 -4.21251 4.04349 -22.6091 -15.4818 -25.4798 -0.517839 -8.01844 -87.771 -54.4158 82.8189 -23.8082 18.5261 -10.6202 2.43195 -4.68804 -7.55779 -0.680073 -0.136712 -7.4547 4.0601 -1.83898 -0.67223 -5.21215 -1.72817 1.19919 
24.3537 99.6296 13.5668 -168.671 -80.9269 -169.976 -175.292 -5.92049 93.1205 -13.0397 -3.05231 -0.706071 71.5687 5.05414 -5.41776 18.6916 -3.48637 5.90678 168.9 -4.73045 84.8137 -14.8399 -14.2338 -1.6288 68.9771 -4.91041 -0.634833 26.2569 -1.18332 3.19966 0.246941 7.62382 -90.1407 11.6268 0.425303 -0.324591 -0.0441345 0.410612 -0.343012 -22.5797 0.503197 -0.18177 -2.56708 0.503202 -0.181769 90.0718 -30.4054 -106.463 41.2006 -14.7783 -4.19192 4.39609 -24.6762 -14.9723 -25.0107 -0.566312 -8.4218 -87.7748 -54.8821 82.8889 -22.9402 18.2717 -11.1044 2.63964 -4.12009 -7.81734 0.141111 -0.134821 -6.38855 4.26716 -1.74595 -0.406562 -5.48856 -1.67769 0.966318 
24.5189 99.598 13.408 -169.605 -81.0978 -170.94 -175.414 -5.53681 92.9284 -13.235 -2.77946 -0.687919 71.4486 5.06179 -5.17097 19.0573 -3.84209 6.32495 168.623 -4.36171 84.5741 -14.9631 -14.3527 -1.40539 68.8708 -4.85683 -0.415753 26.541 -1.09372 2.95551 0.230063 7.60202 -90.1411 11.6703 0.391475 -0.322145 -0.000591273 0.376916 -0.339061 -22.5361 0.470189 -0.189598 -2.52343 0.470193 -0.189593 89.939 -30.2354 -106.79 41.1191 -14.7715 -4.05731 4.62346 -26.7974 -14.9465 -24.6783 -0.828175 -7.66138 -87.7006 -55.2993 83.0613 -21.9428 18.4568 -11.5329 2.64357 -3.08968 -7.94387 0.316904 -0.134768 -6.5491 4.16481 -1.52199 -0.0756937 -5.3753 -1.5112 0.847258 
24.6242 99.6075 13.2259 -169.893 -81.1155 -171.006 -175.467 -5.23305 93.0173 -13.5618 -2.85029 -0.545471 71.5828 5.02524 -5.3821 18.1206 -3.54311 6.01333 169.006 -4.39618 84.9362 -14.7228 -14.0651 -1.59908 68.519 -4.73698 -0.560382 27.1646 -1.1691 3.02475 0.269352 7.59555 -90.145 11.6835 0.467787 -0.338023 0.0125659 0.452458 -0.358292 -22.5231 0.547746 -0.181808 -2.51048 0.547752 -0.181807 90.0507 -30.5459 -106.452 41.0914 -14.7093 -3.78265 4.13923 -26.5151 -15.9085 -24.006 -0.897251 -7.21147 -87.948 -54.9375 82.6517 -21.2174 19.8496 -11.8495 2.00814 -3.39913 -7.9194 -0.251907 -0.137276 -6.90712 4.073 -1.75969 -0.850483 -5.24674 -1.6338 1.71023 
24.8841 99.6436 13.2024 -171.127 -80.4744 -172.513 -175.695 -6.43707 92.5413 -12.562 -3.03966 -0.420449 71.498 5.126 -5.31174 18.2749 -3.4772 5.92311 168.542 -4.72193 84.3111 -15.2453 -14.4407 -1.58267 68.68 -4.76116 -0.819966 26.7833 -1.21207 3.18202 0.245624 7.68378 -90.115 11.5068 0.434937 -0.273487 -0.164096 0.422477 -0.292376 -22.6998 0.497019 -0.130129 -2.68713 0.497024 -0.130123 89.8962 -30.5326 -106.761 41.0263 -14.8035 -3.72611 4.39868 -23.5253 -16.5545 -23.8742 -0.847992 -6.5562 -88.0012 -55.1806 82.616 -19.7148 21.5926 -12.1825 1.13902 -3.94741 -8.03671 0.400878 -0.140267 -6.44681 4.09596 -1.75929 -0.702505 -5.182 -1.65604 1.64419 
24.9257 99.601 12.859 -170.831 -81.0994 -171.682 -175.6 -5.08006 92.9752 -13.4625 -2.73184 -0.39045 71.7115 5.08183 -5.01725 18.3629 -3.39522 5.81649 169.343 -4.20197 85.2439 -14.8232 -13.7547 -1.75706 68.1826 -4.57645 -0.711724 27.2171 -1.27498 3.25712 0.262403 7.61145 -90.1609 11.6515 0.446589 -0.367117 -0.0193757 0.429992 -0.38642 -22.555 0.536266 -0.215924 -2.54233 0.536276 -0.215927 89.8561 -30.6557 -106.793 41.1571 -14.4729 -3.85736 3.91356 -26.8719 -15.7173 -24.1161 -0.887168 -7.37822 -88.1449 -54.5155 82.3007 -20.6211 20.6646 -12.1566 1.6127 -2.93366 -7.20068 0.413442 -0.141044 -6.31886 3.75724 -1.90658 -1.17868 -4.99294 -1.72403 1.82592 
25.0664 99.5981 12.6833 -170.536 -81.1744 -171.369 -175.759 -4.87546 92.7954 -13.5513 -2.98429 -0.303349 71.8812 5.1384 -5.0368 17.7542 -3.82807 6.38419 169.364 -3.9212 85.2352 -15.0327 -13.8027 -1.76533 68.2096 -4.59935 -0.892582 26.9573 -1.18068 3.08152 0.244802 7.60753 -90.1582 11.6594 0.412785 -0.358338 -0.0115348 0.396624 -0.376167 -22.547 0.501399 -0.21771 -2.5344 0.501404 -0.217709 89.71 -30.7433 -107.046 41.1484 -14.6759 -3.87311 2.81701 -26.2094 -16.432 -23.353 -0.837375 -7.5274 -87.9365 -54.4585 82.5891 -20.8375 20.3774 -11.8199 1.82102 -2.74393 -7.64219 0.1671 -0.136403 -6.44643 3.56096 -1.63839 -0.941375 -4.96762 -1.49456 1.53491 
25.2897 99.6003 12.5759 -168.698 -81.0166 -169.712 -176.052 -4.99523 92.2846 -13.4966 -3.23171 -0.245727 71.4897 4.95414 -4.87239 17.9544 -4.34258 7.00023 168.999 -3.77861 84.7067 -14.994 -14.3941 -1.67679 68.0593 -4.51976 -0.396692 28.2296 -0.985941 2.42464 0.266681 7.62051 -90.1473 11.6335 0.461506 -0.34141 -0.037418 0.44603 -0.361401 -22.5731 0.542777 -0.186926 -2.56045 0.542777 -0.186928 89.5944 -30.7698 -107.262 41.0937 -15.0534 -3.86135 4.24855 -25.0957 -16.6718 -24.6069 -0.974244 -6.31736 -87.9055 -54.6288 82.6614 -20.926 20.2232 -11.7403 1.89643 -2.61517 -7.66922 -0.161565 -0.133894 -6.61098 3.42251 -1.48368 -0.734668 -5.03897 -1.38051 1.57341 
25.3664 99.6341 12.5435 -170.843 -80.8396 -171.949 -176.116 -5.38157 92.213 -13.112 -3.45608 -0.171136 71.6121 4.96105 -5.11617 17.1559 -3.22198 5.69248 168.87 -4.06458 84.5464 -15.0088 -14.1139 -1.69581 68.3342 -4.65825 -0.45817 26.8389 -1.02903 2.75791 0.240706 7.65027 -90.1424 11.5739 0.412232 -0.326244 -0.0970542 0.397484 -0.344087 -22.6326 0.491223 -0.187272 -2.61994 0.491229 -0.18727 89.6537 -30.771 -107.145 40.9504 -15.0062 -3.79467 4.12038 -25.9723 -16.7476 -24.6373 -1.10625 -5.83248 -87.9338 -54.6778 82.629 -20.7339 20.6069 -11.951 1.68899 -2.8486 -7.47535 -0.315317 -0.13101 -6.62425 3.48358 -1.50949 -0.802007 -5.03997 -1.39578 1.63987 
